<svg style="display: none;" aria-hidden="true" xmlns="http://www.w3.org/2000/svg" xmlns:xlink="http://www.w3.org/1999/xlink"><symbol viewBox="0 0 24 24" id="mark"><path fill-rule="evenodd" clip-rule="evenodd" d="M21.7071 5.29289C22.0976 5.68342 22.0976 6.31658 21.7071 6.70711L9.70711 18.7071C9.31658 19.0976 8.68342 19.0976 8.29289 18.7071L2.29289 12.7071C1.90237 12.3166 1.90237 11.6834 2.29289 11.2929C2.68342 10.9024 3.31658 10.9024 3.70711 11.2929L9 16.5858L20.2929 5.29289C20.6834 4.90237 21.3166 4.90237 21.7071 5.29289Z"/></symbol><symbol viewBox="0 0 24 24" id="sound"><path fill-rule="evenodd" clip-rule="evenodd" d="M16.5861 5.66988C16.8758 5.19967 17.4918 5.05334 17.962 5.34304C20.3077 6.78823 21.875 9.38306 21.875 12.3448C21.875 15.3065 20.3077 17.9014 17.962 19.3466C17.4918 19.6363 16.8758 19.4899 16.5861 19.0197C16.2964 18.5495 16.4427 17.9335 16.913 17.6438C18.6924 16.5475 19.875 14.5838 19.875 12.3448C19.875 10.1058 18.6924 8.14214 16.913 7.04581C16.4427 6.75611 16.2964 6.14008 16.5861 5.66988Z"/><path fill-rule="evenodd" clip-rule="evenodd" d="M15.9921 9.97316C16.3525 9.5546 16.9839 9.5074 17.4024 9.86772 18.0803 10.4513 18.4375 11.3911 18.4375 12.3443 18.4375 13.2976 18.0803 14.2374 17.4024 14.8209 16.9839 15.1813 16.3525 15.134 15.9921 14.7155 15.6318 14.2969 15.679 13.6655 16.0976 13.3052 16.2448 13.1785 16.4375 12.8445 16.4375 12.3443 16.4375 11.8442 16.2448 11.5101 16.0976 11.3834 15.679 11.0231 15.6318 10.3917 15.9921 9.97316zM5 8.87558C4.44772 8.87558 4 9.32329 4 9.87558V14.1256C4 14.6779 4.44772 15.1256 5 15.1256H6.4375C6.98978 15.1256 7.4375 15.5733 7.4375 16.1256 7.4375 16.6779 6.98978 17.1256 6.4375 17.1256H5C3.34315 17.1256 2 15.7824 2 14.1256V9.87558C2 8.21872 3.34315 6.87558 5 6.87558H6.4375C6.98978 6.87558 7.4375 7.32329 7.4375 7.87558 7.4375 8.42786 6.98978 8.87558 6.4375 8.87558H5z"/><path fill-rule="evenodd" clip-rule="evenodd" d="M13 3.93929C13 3.67885 12.6909 3.54212 12.4982 3.71731L7.11017 8.61552L5.76483 7.13564L11.1529 2.23743C12.6303 0.894284 15 1.94257 15 3.93929V20.0619C15 22.0586 12.6303 23.1069 11.1529 21.7637L5.76483 16.8655L7.11017 15.3856L12.4982 20.2838C12.6909 20.459 13 20.3223 13 20.0619V3.93929Z"/></symbol><symbol viewBox="0 0 24 24" id="sound-off"><path fill-rule="evenodd" clip-rule="evenodd" d="M5 8.87558C4.44772 8.87558 4 9.32329 4 9.87558V14.1256C4 14.6779 4.44772 15.1256 5 15.1256H6.4375C6.98978 15.1256 7.4375 15.5733 7.4375 16.1256C7.4375 16.6779 6.98978 17.1256 6.4375 17.1256H5C3.34315 17.1256 2 15.7824 2 14.1256V9.87558C2 8.21872 3.34315 6.87558 5 6.87558H6.4375C6.98978 6.87558 7.4375 7.32329 7.4375 7.87558C7.4375 8.42786 6.98978 8.87558 6.4375 8.87558H5Z"/><path fill-rule="evenodd" clip-rule="evenodd" d="M13 3.93929C13 3.67885 12.6909 3.54212 12.4982 3.71731L7.11017 8.61552 5.76483 7.13564 11.1529 2.23743C12.6303.894284 15 1.94257 15 3.93929V20.0619C15 22.0586 12.6303 23.1069 11.1529 21.7637L5.76483 16.8655 7.11017 15.3856 12.4982 20.2838C12.6909 20.459 13 20.3223 13 20.0619V3.93929zM16.0429 9.23097C16.4334 8.84045 17.0666 8.84045 17.4571 9.23097L21.5821 13.356C21.9726 13.7465 21.9726 14.3797 21.5821 14.7702 21.1916 15.1607 20.5584 15.1607 20.1679 14.7702L16.0429 10.6452C15.6524 10.2547 15.6524 9.62149 16.0429 9.23097z"/><path fill-rule="evenodd" clip-rule="evenodd" d="M21.5821 9.23097C21.1916 8.84045 20.5584 8.84045 20.1679 9.23097L16.0429 13.356C15.6524 13.7465 15.6524 14.3797 16.0429 14.7702C16.4334 15.1607 17.0666 15.1607 17.4571 14.7702L21.5821 10.6452C21.9726 10.2547 21.9726 9.62149 21.5821 9.23097Z"/></symbol><symbol viewBox="0 0 24 24" id="turn"><path fill-rule="evenodd" clip-rule="evenodd" d="M6.75886 2.50752C7.29232 2.65046 7.60891 3.1988 7.46596 3.73227L6.99273 5.49839L7.50004 5.2055C11.8047 2.72022 17.309 4.19509 19.7943 8.49973C22.2795 12.8044 20.8047 18.3087 16.5 20.794C12.1954 23.2792 6.69109 21.8044 4.20581 17.4997C3.92967 17.0214 4.09354 16.4098 4.57184 16.1337C5.05013 15.8576 5.66172 16.0214 5.93786 16.4997C7.87086 19.8478 12.152 20.9949 15.5 19.0619C18.8481 17.1289 19.9952 12.8478 18.0622 9.49973C16.1292 6.15168 11.8481 5.00455 8.50004 6.93755L7.99273 7.23044L9.75886 7.70367C10.2923 7.84662 10.6089 8.39495 10.466 8.92842C10.323 9.46188 9.77469 9.77847 9.24122 9.63553L5.14314 8.53745C4.60968 8.39451 4.2931 7.84617 4.43604 7.3127L5.53411 3.21463C5.67705 2.68116 6.22539 2.36458 6.75886 2.50752Z"/></symbol></svg>